<mxfile host="Electron" modified="2024-03-07T12:07:39.174Z" agent="Mozilla/5.0 (Windows NT 10.0; Win64; x64) AppleWebKit/537.36 (KHTML, like Gecko) draw.io/23.1.5 Chrome/120.0.6099.109 Electron/28.1.0 Safari/537.36" etag="nm7s6ikc7cQxX_IJA42o" version="23.1.5" type="device">
  <diagram id="yPxyJZ8AM_hMuL3Unpa9" name="gitflow">
    <mxGraphModel dx="2598" dy="1553" grid="1" gridSize="10" guides="1" tooltips="1" connect="1" arrows="1" fold="1" page="1" pageScale="1" pageWidth="850" pageHeight="1100" math="0" shadow="0">
      <root>
        <mxCell id="0" />
        <mxCell id="1" parent="0" />
        <mxCell id="yoYte41sQshFuNEFcuPe-177" value="" style="ellipse;whiteSpace=wrap;html=1;aspect=fixed;" vertex="1" parent="1">
          <mxGeometry x="90" y="220" width="40" height="40" as="geometry" />
        </mxCell>
        <mxCell id="yoYte41sQshFuNEFcuPe-178" value="" style="endArrow=classic;html=1;rounded=0;exitX=1;exitY=0.5;exitDx=0;exitDy=0;entryX=0;entryY=0.5;entryDx=0;entryDy=0;entryPerimeter=0;" edge="1" parent="1" source="yoYte41sQshFuNEFcuPe-177" target="yoYte41sQshFuNEFcuPe-180">
          <mxGeometry width="50" height="50" relative="1" as="geometry">
            <mxPoint x="390" y="80" as="sourcePoint" />
            <mxPoint x="280" y="240" as="targetPoint" />
          </mxGeometry>
        </mxCell>
        <mxCell id="yoYte41sQshFuNEFcuPe-184" value="open app" style="edgeLabel;html=1;align=center;verticalAlign=middle;resizable=0;points=[];" vertex="1" connectable="0" parent="yoYte41sQshFuNEFcuPe-178">
          <mxGeometry x="-0.0267" y="-3" relative="1" as="geometry">
            <mxPoint x="-1" as="offset" />
          </mxGeometry>
        </mxCell>
        <mxCell id="yoYte41sQshFuNEFcuPe-183" style="edgeStyle=orthogonalEdgeStyle;rounded=0;orthogonalLoop=1;jettySize=auto;html=1;entryX=0.5;entryY=1;entryDx=0;entryDy=0;" edge="1" parent="1" source="yoYte41sQshFuNEFcuPe-180" target="yoYte41sQshFuNEFcuPe-182">
          <mxGeometry relative="1" as="geometry" />
        </mxCell>
        <mxCell id="yoYte41sQshFuNEFcuPe-185" value="close app" style="edgeLabel;html=1;align=center;verticalAlign=middle;resizable=0;points=[];" vertex="1" connectable="0" parent="yoYte41sQshFuNEFcuPe-183">
          <mxGeometry x="0.0933" y="5" relative="1" as="geometry">
            <mxPoint y="-1" as="offset" />
          </mxGeometry>
        </mxCell>
        <mxCell id="yoYte41sQshFuNEFcuPe-189" style="edgeStyle=orthogonalEdgeStyle;rounded=0;orthogonalLoop=1;jettySize=auto;html=1;" edge="1" parent="1" source="yoYte41sQshFuNEFcuPe-180" target="yoYte41sQshFuNEFcuPe-187">
          <mxGeometry relative="1" as="geometry" />
        </mxCell>
        <mxCell id="yoYte41sQshFuNEFcuPe-191" value="login\register" style="edgeLabel;html=1;align=center;verticalAlign=middle;resizable=0;points=[];" vertex="1" connectable="0" parent="yoYte41sQshFuNEFcuPe-189">
          <mxGeometry x="-0.15" y="-1" relative="1" as="geometry">
            <mxPoint x="-1" as="offset" />
          </mxGeometry>
        </mxCell>
        <mxCell id="yoYte41sQshFuNEFcuPe-180" value="Logged_out" style="rounded=1;whiteSpace=wrap;html=1;" vertex="1" parent="1">
          <mxGeometry x="220" y="210" width="120" height="60" as="geometry" />
        </mxCell>
        <mxCell id="yoYte41sQshFuNEFcuPe-182" value="" style="ellipse;shape=doubleEllipse;whiteSpace=wrap;html=1;aspect=fixed;" vertex="1" parent="1">
          <mxGeometry x="255" y="100" width="50" height="50" as="geometry" />
        </mxCell>
        <mxCell id="yoYte41sQshFuNEFcuPe-196" style="edgeStyle=orthogonalEdgeStyle;rounded=0;orthogonalLoop=1;jettySize=auto;html=1;entryX=0;entryY=0.5;entryDx=0;entryDy=0;" edge="1" parent="1" source="yoYte41sQshFuNEFcuPe-186" target="yoYte41sQshFuNEFcuPe-195">
          <mxGeometry relative="1" as="geometry" />
        </mxCell>
        <mxCell id="yoYte41sQshFuNEFcuPe-199" value="register works" style="edgeLabel;html=1;align=center;verticalAlign=middle;resizable=0;points=[];" vertex="1" connectable="0" parent="yoYte41sQshFuNEFcuPe-196">
          <mxGeometry x="-0.5474" relative="1" as="geometry">
            <mxPoint x="1" as="offset" />
          </mxGeometry>
        </mxCell>
        <mxCell id="yoYte41sQshFuNEFcuPe-186" value="Register" style="rounded=1;whiteSpace=wrap;html=1;" vertex="1" parent="1">
          <mxGeometry x="400" y="95" width="120" height="60" as="geometry" />
        </mxCell>
        <mxCell id="yoYte41sQshFuNEFcuPe-190" style="edgeStyle=orthogonalEdgeStyle;rounded=0;orthogonalLoop=1;jettySize=auto;html=1;" edge="1" parent="1" source="yoYte41sQshFuNEFcuPe-187" target="yoYte41sQshFuNEFcuPe-186">
          <mxGeometry relative="1" as="geometry" />
        </mxCell>
        <mxCell id="yoYte41sQshFuNEFcuPe-192" value="[no user]" style="edgeLabel;html=1;align=center;verticalAlign=middle;resizable=0;points=[];" vertex="1" connectable="0" parent="yoYte41sQshFuNEFcuPe-190">
          <mxGeometry x="-0.2344" y="1" relative="1" as="geometry">
            <mxPoint as="offset" />
          </mxGeometry>
        </mxCell>
        <mxCell id="yoYte41sQshFuNEFcuPe-197" style="edgeStyle=orthogonalEdgeStyle;rounded=0;orthogonalLoop=1;jettySize=auto;html=1;entryX=0;entryY=0.5;entryDx=0;entryDy=0;" edge="1" parent="1" source="yoYte41sQshFuNEFcuPe-187" target="yoYte41sQshFuNEFcuPe-195">
          <mxGeometry relative="1" as="geometry">
            <Array as="points">
              <mxPoint x="610" y="239" />
              <mxPoint x="610" y="125" />
            </Array>
          </mxGeometry>
        </mxCell>
        <mxCell id="yoYte41sQshFuNEFcuPe-200" value="[user exists]" style="edgeLabel;html=1;align=center;verticalAlign=middle;resizable=0;points=[];" vertex="1" connectable="0" parent="yoYte41sQshFuNEFcuPe-197">
          <mxGeometry x="-0.6256" y="4" relative="1" as="geometry">
            <mxPoint as="offset" />
          </mxGeometry>
        </mxCell>
        <mxCell id="yoYte41sQshFuNEFcuPe-355" value="login" style="edgeLabel;html=1;align=center;verticalAlign=middle;resizable=0;points=[];" vertex="1" connectable="0" parent="yoYte41sQshFuNEFcuPe-197">
          <mxGeometry x="0.671" y="1" relative="1" as="geometry">
            <mxPoint x="1" as="offset" />
          </mxGeometry>
        </mxCell>
        <mxCell id="yoYte41sQshFuNEFcuPe-261" style="edgeStyle=orthogonalEdgeStyle;rounded=0;orthogonalLoop=1;jettySize=auto;html=1;entryX=1;entryY=0.75;entryDx=0;entryDy=0;" edge="1" parent="1" source="yoYte41sQshFuNEFcuPe-187" target="yoYte41sQshFuNEFcuPe-180">
          <mxGeometry relative="1" as="geometry">
            <Array as="points">
              <mxPoint x="460" y="270" />
              <mxPoint x="385" y="270" />
              <mxPoint x="385" y="255" />
            </Array>
          </mxGeometry>
        </mxCell>
        <mxCell id="yoYte41sQshFuNEFcuPe-263" value="information incorrect" style="edgeLabel;html=1;align=center;verticalAlign=middle;resizable=0;points=[];" vertex="1" connectable="0" parent="yoYte41sQshFuNEFcuPe-261">
          <mxGeometry x="-0.098" y="-1" relative="1" as="geometry">
            <mxPoint as="offset" />
          </mxGeometry>
        </mxCell>
        <mxCell id="yoYte41sQshFuNEFcuPe-187" value="" style="html=1;whiteSpace=wrap;aspect=fixed;shape=isoRectangle;" vertex="1" parent="1">
          <mxGeometry x="430.84" y="221" width="58.33" height="35" as="geometry" />
        </mxCell>
        <mxCell id="yoYte41sQshFuNEFcuPe-193" style="edgeStyle=orthogonalEdgeStyle;rounded=0;orthogonalLoop=1;jettySize=auto;html=1;entryX=0.851;entryY=0.018;entryDx=0;entryDy=0;entryPerimeter=0;" edge="1" parent="1" source="yoYte41sQshFuNEFcuPe-186" target="yoYte41sQshFuNEFcuPe-180">
          <mxGeometry relative="1" as="geometry" />
        </mxCell>
        <mxCell id="yoYte41sQshFuNEFcuPe-241" value="cancel" style="edgeLabel;html=1;align=center;verticalAlign=middle;resizable=0;points=[];" vertex="1" connectable="0" parent="yoYte41sQshFuNEFcuPe-193">
          <mxGeometry x="-0.4102" y="-2" relative="1" as="geometry">
            <mxPoint as="offset" />
          </mxGeometry>
        </mxCell>
        <mxCell id="yoYte41sQshFuNEFcuPe-201" style="edgeStyle=orthogonalEdgeStyle;rounded=0;orthogonalLoop=1;jettySize=auto;html=1;entryX=0.75;entryY=1;entryDx=0;entryDy=0;" edge="1" parent="1" source="yoYte41sQshFuNEFcuPe-195" target="yoYte41sQshFuNEFcuPe-180">
          <mxGeometry relative="1" as="geometry">
            <Array as="points">
              <mxPoint x="760" y="290" />
              <mxPoint x="310" y="290" />
            </Array>
          </mxGeometry>
        </mxCell>
        <mxCell id="yoYte41sQshFuNEFcuPe-202" value="logout" style="edgeLabel;html=1;align=center;verticalAlign=middle;resizable=0;points=[];" vertex="1" connectable="0" parent="yoYte41sQshFuNEFcuPe-201">
          <mxGeometry x="0.0397" y="2" relative="1" as="geometry">
            <mxPoint x="1" as="offset" />
          </mxGeometry>
        </mxCell>
        <mxCell id="yoYte41sQshFuNEFcuPe-195" value="Logged_In_Ref" style="rounded=1;whiteSpace=wrap;html=1;" vertex="1" parent="1">
          <mxGeometry x="710" y="95" width="120" height="60" as="geometry" />
        </mxCell>
        <mxCell id="yoYte41sQshFuNEFcuPe-203" value="&lt;b&gt;&lt;u&gt;&lt;font style=&quot;font-size: 36px;&quot;&gt;Login&lt;/font&gt;:&lt;/u&gt;&lt;/b&gt;" style="text;html=1;align=center;verticalAlign=middle;resizable=0;points=[];autosize=1;strokeColor=none;fillColor=none;" vertex="1" parent="1">
          <mxGeometry x="100" y="40" width="130" height="60" as="geometry" />
        </mxCell>
        <mxCell id="yoYte41sQshFuNEFcuPe-204" value="&lt;b&gt;&lt;u&gt;&lt;font style=&quot;font-size: 36px;&quot;&gt;Logged_In:&lt;/font&gt;:&lt;/u&gt;&lt;/b&gt;" style="text;html=1;align=center;verticalAlign=middle;resizable=0;points=[];autosize=1;strokeColor=none;fillColor=none;" vertex="1" parent="1">
          <mxGeometry x="65" y="450" width="220" height="60" as="geometry" />
        </mxCell>
        <mxCell id="yoYte41sQshFuNEFcuPe-209" style="edgeStyle=orthogonalEdgeStyle;rounded=0;orthogonalLoop=1;jettySize=auto;html=1;" edge="1" parent="1">
          <mxGeometry relative="1" as="geometry">
            <mxPoint x="10" y="580" as="targetPoint" />
            <mxPoint x="165" y="580.0000000000002" as="sourcePoint" />
            <Array as="points">
              <mxPoint x="115" y="580" />
              <mxPoint x="45" y="581" />
            </Array>
          </mxGeometry>
        </mxCell>
        <mxCell id="yoYte41sQshFuNEFcuPe-210" value="logout" style="edgeLabel;html=1;align=center;verticalAlign=middle;resizable=0;points=[];" vertex="1" connectable="0" parent="yoYte41sQshFuNEFcuPe-209">
          <mxGeometry x="0.0677" y="-5" relative="1" as="geometry">
            <mxPoint as="offset" />
          </mxGeometry>
        </mxCell>
        <mxCell id="yoYte41sQshFuNEFcuPe-212" style="edgeStyle=orthogonalEdgeStyle;rounded=0;orthogonalLoop=1;jettySize=auto;html=1;startArrow=classic;startFill=1;endArrow=none;endFill=0;exitX=0;exitY=0;exitDx=0;exitDy=0;" edge="1" parent="1" source="yoYte41sQshFuNEFcuPe-215">
          <mxGeometry relative="1" as="geometry">
            <mxPoint x="10" y="556" as="targetPoint" />
            <mxPoint x="150" y="785" as="sourcePoint" />
            <Array as="points">
              <mxPoint x="20" y="556" />
            </Array>
          </mxGeometry>
        </mxCell>
        <mxCell id="yoYte41sQshFuNEFcuPe-356" value="login" style="edgeLabel;html=1;align=center;verticalAlign=middle;resizable=0;points=[];" vertex="1" connectable="0" parent="yoYte41sQshFuNEFcuPe-212">
          <mxGeometry x="-0.0087" y="1" relative="1" as="geometry">
            <mxPoint as="offset" />
          </mxGeometry>
        </mxCell>
        <mxCell id="yoYte41sQshFuNEFcuPe-215" value="" style="ellipse;whiteSpace=wrap;html=1;aspect=fixed;" vertex="1" parent="1">
          <mxGeometry x="159.99969465648854" y="550" width="40" height="40" as="geometry" />
        </mxCell>
        <mxCell id="yoYte41sQshFuNEFcuPe-216" value="main menu" style="rounded=1;whiteSpace=wrap;html=1;" vertex="1" parent="1">
          <mxGeometry x="239.236641221374" y="534.5333333333333" width="133.43511450381678" height="73.6" as="geometry" />
        </mxCell>
        <mxCell id="yoYte41sQshFuNEFcuPe-217" style="edgeStyle=orthogonalEdgeStyle;rounded=0;orthogonalLoop=1;jettySize=auto;html=1;" edge="1" parent="1" source="yoYte41sQshFuNEFcuPe-215" target="yoYte41sQshFuNEFcuPe-216">
          <mxGeometry relative="1" as="geometry" />
        </mxCell>
        <mxCell id="yoYte41sQshFuNEFcuPe-219" value="created classes" style="rounded=1;whiteSpace=wrap;html=1;fillColor=#d5e8d4;strokeColor=#82b366;" vertex="1" parent="1">
          <mxGeometry x="795.2162849872773" y="755.3333333333333" width="133.43511450381678" height="73.6" as="geometry" />
        </mxCell>
        <mxCell id="yoYte41sQshFuNEFcuPe-224" style="edgeStyle=orthogonalEdgeStyle;rounded=0;orthogonalLoop=1;jettySize=auto;html=1;entryX=0;entryY=0.5;entryDx=0;entryDy=0;" edge="1" parent="1" source="yoYte41sQshFuNEFcuPe-216" target="yoYte41sQshFuNEFcuPe-219">
          <mxGeometry relative="1" as="geometry">
            <Array as="points">
              <mxPoint x="510" y="596" />
              <mxPoint x="510" y="792" />
            </Array>
          </mxGeometry>
        </mxCell>
        <mxCell id="yoYte41sQshFuNEFcuPe-226" value="edit classes" style="edgeLabel;html=1;align=center;verticalAlign=middle;resizable=0;points=[];" vertex="1" connectable="0" parent="yoYte41sQshFuNEFcuPe-224">
          <mxGeometry x="0.0306" y="1" relative="1" as="geometry">
            <mxPoint as="offset" />
          </mxGeometry>
        </mxCell>
        <mxCell id="yoYte41sQshFuNEFcuPe-220" value="assigned classes" style="rounded=1;whiteSpace=wrap;html=1;fillColor=#f8cecc;strokeColor=#b85450;" vertex="1" parent="1">
          <mxGeometry x="517.2224427480916" y="535.7033333333334" width="133.43511450381678" height="73.6" as="geometry" />
        </mxCell>
        <mxCell id="yoYte41sQshFuNEFcuPe-222" style="edgeStyle=orthogonalEdgeStyle;rounded=0;orthogonalLoop=1;jettySize=auto;html=1;entryX=0;entryY=0.5;entryDx=0;entryDy=0;" edge="1" parent="1" source="yoYte41sQshFuNEFcuPe-216" target="yoYte41sQshFuNEFcuPe-220">
          <mxGeometry relative="1" as="geometry" />
        </mxCell>
        <mxCell id="yoYte41sQshFuNEFcuPe-227" value="participate&amp;nbsp;" style="edgeLabel;html=1;align=center;verticalAlign=middle;resizable=0;points=[];" vertex="1" connectable="0" parent="yoYte41sQshFuNEFcuPe-222">
          <mxGeometry x="-0.0111" y="1" relative="1" as="geometry">
            <mxPoint x="-1" as="offset" />
          </mxGeometry>
        </mxCell>
        <mxCell id="yoYte41sQshFuNEFcuPe-540" style="edgeStyle=orthogonalEdgeStyle;rounded=0;orthogonalLoop=1;jettySize=auto;html=1;entryX=0.5;entryY=0;entryDx=0;entryDy=0;" edge="1" parent="1" source="yoYte41sQshFuNEFcuPe-221" target="yoYte41sQshFuNEFcuPe-539">
          <mxGeometry relative="1" as="geometry" />
        </mxCell>
        <mxCell id="yoYte41sQshFuNEFcuPe-541" value="select action" style="edgeLabel;html=1;align=center;verticalAlign=middle;resizable=0;points=[];" vertex="1" connectable="0" parent="yoYte41sQshFuNEFcuPe-540">
          <mxGeometry x="-0.0294" y="3" relative="1" as="geometry">
            <mxPoint as="offset" />
          </mxGeometry>
        </mxCell>
        <mxCell id="yoYte41sQshFuNEFcuPe-221" value="my projects" style="rounded=1;whiteSpace=wrap;html=1;fillColor=#ffe6cc;strokeColor=#d79b00;" vertex="1" parent="1">
          <mxGeometry x="239.23664122137404" y="706.2666666666667" width="133.43511450381678" height="73.6" as="geometry" />
        </mxCell>
        <mxCell id="yoYte41sQshFuNEFcuPe-223" style="edgeStyle=orthogonalEdgeStyle;rounded=0;orthogonalLoop=1;jettySize=auto;html=1;entryX=0.5;entryY=0;entryDx=0;entryDy=0;" edge="1" parent="1" source="yoYte41sQshFuNEFcuPe-216" target="yoYte41sQshFuNEFcuPe-221">
          <mxGeometry relative="1" as="geometry" />
        </mxCell>
        <mxCell id="yoYte41sQshFuNEFcuPe-225" value="edit projects" style="edgeLabel;html=1;align=center;verticalAlign=middle;resizable=0;points=[];" vertex="1" connectable="0" parent="yoYte41sQshFuNEFcuPe-223">
          <mxGeometry x="0.0917" y="-1" relative="1" as="geometry">
            <mxPoint as="offset" />
          </mxGeometry>
        </mxCell>
        <mxCell id="yoYte41sQshFuNEFcuPe-228" value="project page" style="rounded=1;whiteSpace=wrap;html=1;fillColor=#ffe6cc;strokeColor=#d79b00;" vertex="1" parent="1">
          <mxGeometry x="1569.9992875318067" y="1653.6033333333332" width="133.43511450381678" height="73.6" as="geometry" />
        </mxCell>
        <mxCell id="yoYte41sQshFuNEFcuPe-234" style="edgeStyle=orthogonalEdgeStyle;rounded=0;orthogonalLoop=1;jettySize=auto;html=1;entryX=0.5;entryY=0;entryDx=0;entryDy=0;exitX=0.5;exitY=1;exitDx=0;exitDy=0;" edge="1" parent="1" source="yoYte41sQshFuNEFcuPe-538" target="yoYte41sQshFuNEFcuPe-228">
          <mxGeometry relative="1" as="geometry">
            <mxPoint x="1703.9798091603052" y="1597.4946991075926" as="sourcePoint" />
          </mxGeometry>
        </mxCell>
        <mxCell id="yoYte41sQshFuNEFcuPe-235" value="create/select page" style="edgeLabel;html=1;align=center;verticalAlign=middle;resizable=0;points=[];" vertex="1" connectable="0" parent="yoYte41sQshFuNEFcuPe-234">
          <mxGeometry x="-0.0337" y="3" relative="1" as="geometry">
            <mxPoint as="offset" />
          </mxGeometry>
        </mxCell>
        <mxCell id="yoYte41sQshFuNEFcuPe-237" value="confirm delete project" style="rounded=1;whiteSpace=wrap;html=1;fillColor=#ffe6cc;strokeColor=#d79b00;" vertex="1" parent="1">
          <mxGeometry x="1764.5921628498727" y="1641.3366666666666" width="133.43511450381678" height="73.6" as="geometry" />
        </mxCell>
        <mxCell id="yoYte41sQshFuNEFcuPe-238" style="edgeStyle=orthogonalEdgeStyle;rounded=0;orthogonalLoop=1;jettySize=auto;html=1;entryX=0.5;entryY=0;entryDx=0;entryDy=0;" edge="1" parent="1" target="yoYte41sQshFuNEFcuPe-237">
          <mxGeometry relative="1" as="geometry">
            <mxPoint x="1738.9798091603052" y="1597.4966690612764" as="sourcePoint" />
          </mxGeometry>
        </mxCell>
        <mxCell id="yoYte41sQshFuNEFcuPe-509" value="selete project" style="edgeLabel;html=1;align=center;verticalAlign=middle;resizable=0;points=[];" vertex="1" connectable="0" parent="yoYte41sQshFuNEFcuPe-238">
          <mxGeometry x="-0.1795" y="1" relative="1" as="geometry">
            <mxPoint x="1" as="offset" />
          </mxGeometry>
        </mxCell>
        <mxCell id="yoYte41sQshFuNEFcuPe-242" style="edgeStyle=orthogonalEdgeStyle;rounded=0;orthogonalLoop=1;jettySize=auto;html=1;entryX=1;entryY=0.75;entryDx=0;entryDy=0;" edge="1" parent="1" source="yoYte41sQshFuNEFcuPe-228" target="yoYte41sQshFuNEFcuPe-228">
          <mxGeometry relative="1" as="geometry">
            <Array as="points">
              <mxPoint x="1725.6735877862595" y="1665.87" />
              <mxPoint x="1725.6735877862595" y="1708.8033333333333" />
            </Array>
          </mxGeometry>
        </mxCell>
        <mxCell id="yoYte41sQshFuNEFcuPe-243" value="add sample" style="edgeLabel;html=1;align=center;verticalAlign=middle;resizable=0;points=[];" vertex="1" connectable="0" parent="yoYte41sQshFuNEFcuPe-242">
          <mxGeometry x="-0.0611" y="1" relative="1" as="geometry">
            <mxPoint x="-1" as="offset" />
          </mxGeometry>
        </mxCell>
        <mxCell id="yoYte41sQshFuNEFcuPe-245" value="" style="html=1;whiteSpace=wrap;aspect=fixed;shape=isoRectangle;rotation=90;fillColor=#ffe6cc;strokeColor=#d79b00;" vertex="1" parent="1">
          <mxGeometry x="1670.075623409669" y="1788.5366666666666" width="58.33" height="35" as="geometry" />
        </mxCell>
        <mxCell id="yoYte41sQshFuNEFcuPe-246" style="edgeStyle=orthogonalEdgeStyle;rounded=0;orthogonalLoop=1;jettySize=auto;html=1;" edge="1" parent="1" source="yoYte41sQshFuNEFcuPe-228" target="yoYte41sQshFuNEFcuPe-245">
          <mxGeometry relative="1" as="geometry" />
        </mxCell>
        <mxCell id="yoYte41sQshFuNEFcuPe-247" value="select action" style="edgeLabel;html=1;align=center;verticalAlign=middle;resizable=0;points=[];" vertex="1" connectable="0" parent="yoYte41sQshFuNEFcuPe-246">
          <mxGeometry x="-0.4099" relative="1" as="geometry">
            <mxPoint as="offset" />
          </mxGeometry>
        </mxCell>
        <mxCell id="yoYte41sQshFuNEFcuPe-256" style="edgeStyle=orthogonalEdgeStyle;rounded=0;orthogonalLoop=1;jettySize=auto;html=1;" edge="1" parent="1" source="yoYte41sQshFuNEFcuPe-249">
          <mxGeometry relative="1" as="geometry">
            <mxPoint x="1998.1036132315521" y="1909.9766666666665" as="targetPoint" />
            <Array as="points">
              <mxPoint x="1998.1036132315521" y="1909.9766666666665" />
            </Array>
          </mxGeometry>
        </mxCell>
        <mxCell id="yoYte41sQshFuNEFcuPe-257" value="select/create analysis" style="edgeLabel;html=1;align=center;verticalAlign=middle;resizable=0;points=[];" vertex="1" connectable="0" parent="yoYte41sQshFuNEFcuPe-256">
          <mxGeometry x="-0.059" y="1" relative="1" as="geometry">
            <mxPoint y="-1" as="offset" />
          </mxGeometry>
        </mxCell>
        <mxCell id="yoYte41sQshFuNEFcuPe-249" value="session" style="rounded=1;whiteSpace=wrap;html=1;fillColor=#ffe6cc;strokeColor=#d79b00;" vertex="1" parent="1">
          <mxGeometry x="1875.7880916030533" y="1773.2033333333334" width="133.43511450381678" height="73.6" as="geometry" />
        </mxCell>
        <mxCell id="yoYte41sQshFuNEFcuPe-250" style="edgeStyle=orthogonalEdgeStyle;rounded=0;orthogonalLoop=1;jettySize=auto;html=1;entryX=0;entryY=0.5;entryDx=0;entryDy=0;" edge="1" parent="1" source="yoYte41sQshFuNEFcuPe-245" target="yoYte41sQshFuNEFcuPe-249">
          <mxGeometry relative="1" as="geometry" />
        </mxCell>
        <mxCell id="yoYte41sQshFuNEFcuPe-254" value="create/select session" style="edgeLabel;html=1;align=center;verticalAlign=middle;resizable=0;points=[];" vertex="1" connectable="0" parent="yoYte41sQshFuNEFcuPe-250">
          <mxGeometry x="-0.2817" relative="1" as="geometry">
            <mxPoint as="offset" />
          </mxGeometry>
        </mxCell>
        <mxCell id="yoYte41sQshFuNEFcuPe-267" style="edgeStyle=orthogonalEdgeStyle;rounded=0;orthogonalLoop=1;jettySize=auto;html=1;" edge="1" parent="1" source="yoYte41sQshFuNEFcuPe-255" target="yoYte41sQshFuNEFcuPe-249">
          <mxGeometry relative="1" as="geometry">
            <Array as="points">
              <mxPoint x="1886.9076844783715" y="1874.4033333333332" />
              <mxPoint x="1886.9076844783715" y="1874.4033333333332" />
            </Array>
          </mxGeometry>
        </mxCell>
        <mxCell id="yoYte41sQshFuNEFcuPe-268" value="return analysis" style="edgeLabel;html=1;align=center;verticalAlign=middle;resizable=0;points=[];" vertex="1" connectable="0" parent="yoYte41sQshFuNEFcuPe-267">
          <mxGeometry x="-0.0248" y="-4" relative="1" as="geometry">
            <mxPoint as="offset" />
          </mxGeometry>
        </mxCell>
        <mxCell id="yoYte41sQshFuNEFcuPe-255" value="analysis" style="rounded=1;whiteSpace=wrap;html=1;fillColor=#ffe6cc;strokeColor=#d79b00;" vertex="1" parent="1">
          <mxGeometry x="1875.7880916030533" y="1911.2033333333334" width="133.43511450381678" height="73.6" as="geometry" />
        </mxCell>
        <mxCell id="yoYte41sQshFuNEFcuPe-269" style="edgeStyle=orthogonalEdgeStyle;rounded=0;orthogonalLoop=1;jettySize=auto;html=1;entryX=0.5;entryY=1;entryDx=0;entryDy=0;" edge="1" parent="1" source="yoYte41sQshFuNEFcuPe-249" target="yoYte41sQshFuNEFcuPe-354">
          <mxGeometry relative="1" as="geometry">
            <Array as="points">
              <mxPoint x="1943.0616284987277" y="1739.4699999999998" />
              <mxPoint x="2020.898778625954" y="1739.4699999999998" />
            </Array>
          </mxGeometry>
        </mxCell>
        <mxCell id="yoYte41sQshFuNEFcuPe-270" value="show analysis" style="edgeLabel;html=1;align=center;verticalAlign=middle;resizable=0;points=[];" vertex="1" connectable="0" parent="yoYte41sQshFuNEFcuPe-269">
          <mxGeometry x="-0.1384" relative="1" as="geometry">
            <mxPoint as="offset" />
          </mxGeometry>
        </mxCell>
        <mxCell id="yoYte41sQshFuNEFcuPe-271" value="confirm delete session" style="rounded=1;whiteSpace=wrap;html=1;fillColor=#ffe6cc;strokeColor=#d79b00;" vertex="1" parent="1">
          <mxGeometry x="1569.9992875318067" y="1923.4699999999998" width="133.43511450381678" height="73.6" as="geometry" />
        </mxCell>
        <mxCell id="yoYte41sQshFuNEFcuPe-272" style="edgeStyle=orthogonalEdgeStyle;rounded=0;orthogonalLoop=1;jettySize=auto;html=1;entryX=0.75;entryY=0;entryDx=0;entryDy=0;" edge="1" parent="1" source="yoYte41sQshFuNEFcuPe-245" target="yoYte41sQshFuNEFcuPe-271">
          <mxGeometry relative="1" as="geometry" />
        </mxCell>
        <mxCell id="yoYte41sQshFuNEFcuPe-273" value="delete session" style="edgeLabel;html=1;align=center;verticalAlign=middle;resizable=0;points=[];" vertex="1" connectable="0" parent="yoYte41sQshFuNEFcuPe-272">
          <mxGeometry x="-0.0783" y="-1" relative="1" as="geometry">
            <mxPoint as="offset" />
          </mxGeometry>
        </mxCell>
        <mxCell id="yoYte41sQshFuNEFcuPe-274" style="edgeStyle=orthogonalEdgeStyle;rounded=0;orthogonalLoop=1;jettySize=auto;html=1;entryX=0.107;entryY=1.04;entryDx=0;entryDy=0;entryPerimeter=0;" edge="1" parent="1" source="yoYte41sQshFuNEFcuPe-271" target="yoYte41sQshFuNEFcuPe-228">
          <mxGeometry relative="1" as="geometry" />
        </mxCell>
        <mxCell id="yoYte41sQshFuNEFcuPe-275" value="update sessions" style="edgeLabel;html=1;align=center;verticalAlign=middle;resizable=0;points=[];" vertex="1" connectable="0" parent="yoYte41sQshFuNEFcuPe-274">
          <mxGeometry x="0.0762" y="-2" relative="1" as="geometry">
            <mxPoint as="offset" />
          </mxGeometry>
        </mxCell>
        <mxCell id="yoYte41sQshFuNEFcuPe-279" style="edgeStyle=orthogonalEdgeStyle;rounded=0;orthogonalLoop=1;jettySize=auto;html=1;entryX=0.5;entryY=0;entryDx=0;entryDy=0;" edge="1" parent="1" source="yoYte41sQshFuNEFcuPe-219" target="yoYte41sQshFuNEFcuPe-507">
          <mxGeometry relative="1" as="geometry">
            <Array as="points">
              <mxPoint x="858" y="978" />
            </Array>
          </mxGeometry>
        </mxCell>
        <mxCell id="yoYte41sQshFuNEFcuPe-508" value="select action" style="edgeLabel;html=1;align=center;verticalAlign=middle;resizable=0;points=[];" vertex="1" connectable="0" parent="yoYte41sQshFuNEFcuPe-279">
          <mxGeometry x="-0.1702" y="3" relative="1" as="geometry">
            <mxPoint y="1" as="offset" />
          </mxGeometry>
        </mxCell>
        <mxCell id="yoYte41sQshFuNEFcuPe-282" style="edgeStyle=orthogonalEdgeStyle;rounded=0;orthogonalLoop=1;jettySize=auto;html=1;entryX=0;entryY=0.75;entryDx=0;entryDy=0;exitX=0;exitY=0.5;exitDx=0;exitDy=0;" edge="1" parent="1" source="yoYte41sQshFuNEFcuPe-507" target="yoYte41sQshFuNEFcuPe-219">
          <mxGeometry relative="1" as="geometry">
            <Array as="points">
              <mxPoint x="720" y="1014" />
              <mxPoint x="720" y="811" />
            </Array>
          </mxGeometry>
        </mxCell>
        <mxCell id="yoYte41sQshFuNEFcuPe-283" value="update classes" style="edgeLabel;html=1;align=center;verticalAlign=middle;resizable=0;points=[];" vertex="1" connectable="0" parent="yoYte41sQshFuNEFcuPe-282">
          <mxGeometry x="-0.4109" y="-4" relative="1" as="geometry">
            <mxPoint y="-71" as="offset" />
          </mxGeometry>
        </mxCell>
        <mxCell id="yoYte41sQshFuNEFcuPe-462" style="edgeStyle=orthogonalEdgeStyle;rounded=0;orthogonalLoop=1;jettySize=auto;html=1;entryX=0.5;entryY=1;entryDx=0;entryDy=0;exitX=0.837;exitY=-0.017;exitDx=0;exitDy=0;exitPerimeter=0;" edge="1" parent="1" source="yoYte41sQshFuNEFcuPe-507" target="yoYte41sQshFuNEFcuPe-220">
          <mxGeometry relative="1" as="geometry">
            <Array as="points">
              <mxPoint x="900" y="976" />
              <mxPoint x="900" y="940" />
              <mxPoint x="1080" y="940" />
              <mxPoint x="1080" y="680" />
              <mxPoint x="584" y="680" />
            </Array>
          </mxGeometry>
        </mxCell>
        <mxCell id="yoYte41sQshFuNEFcuPe-464" value="update classes" style="edgeLabel;html=1;align=center;verticalAlign=middle;resizable=0;points=[];" vertex="1" connectable="0" parent="yoYte41sQshFuNEFcuPe-462">
          <mxGeometry x="0.1518" y="1" relative="1" as="geometry">
            <mxPoint as="offset" />
          </mxGeometry>
        </mxCell>
        <mxCell id="yoYte41sQshFuNEFcuPe-280" value="confirm delete class" style="rounded=1;whiteSpace=wrap;html=1;fillColor=#d5e8d4;strokeColor=#82b366;" vertex="1" parent="1">
          <mxGeometry x="1940.6009923664121" y="615.8733333333332" width="133.43511450381678" height="73.6" as="geometry" />
        </mxCell>
        <mxCell id="yoYte41sQshFuNEFcuPe-281" style="edgeStyle=orthogonalEdgeStyle;rounded=0;orthogonalLoop=1;jettySize=auto;html=1;entryX=0;entryY=0.5;entryDx=0;entryDy=0;" edge="1" parent="1" target="yoYte41sQshFuNEFcuPe-280">
          <mxGeometry relative="1" as="geometry">
            <mxPoint x="1876.9929898218827" y="541.3584756601822" as="sourcePoint" />
          </mxGeometry>
        </mxCell>
        <mxCell id="yoYte41sQshFuNEFcuPe-510" value="delete class" style="edgeLabel;html=1;align=center;verticalAlign=middle;resizable=0;points=[];" vertex="1" connectable="0" parent="yoYte41sQshFuNEFcuPe-281">
          <mxGeometry x="0.0202" y="6" relative="1" as="geometry">
            <mxPoint as="offset" />
          </mxGeometry>
        </mxCell>
        <mxCell id="yoYte41sQshFuNEFcuPe-285" value="class page" style="rounded=1;whiteSpace=wrap;html=1;fillColor=#d5e8d4;strokeColor=#82b366;" vertex="1" parent="1">
          <mxGeometry x="1729.328727735369" y="625.0733333333333" width="133.43511450381678" height="73.6" as="geometry" />
        </mxCell>
        <mxCell id="yoYte41sQshFuNEFcuPe-357" style="edgeStyle=orthogonalEdgeStyle;rounded=0;orthogonalLoop=1;jettySize=auto;html=1;entryX=0.5;entryY=0;entryDx=0;entryDy=0;" edge="1" parent="1" source="yoYte41sQshFuNEFcuPe-289" target="yoYte41sQshFuNEFcuPe-293">
          <mxGeometry relative="1" as="geometry">
            <Array as="points">
              <mxPoint x="1940.3300000000002" y="809.7399999999998" />
            </Array>
          </mxGeometry>
        </mxCell>
        <mxCell id="yoYte41sQshFuNEFcuPe-358" value="create/select task" style="edgeLabel;html=1;align=center;verticalAlign=middle;resizable=0;points=[];" vertex="1" connectable="0" parent="yoYte41sQshFuNEFcuPe-357">
          <mxGeometry x="-0.5597" y="-2" relative="1" as="geometry">
            <mxPoint x="20" y="-2" as="offset" />
          </mxGeometry>
        </mxCell>
        <mxCell id="yoYte41sQshFuNEFcuPe-362" style="edgeStyle=orthogonalEdgeStyle;rounded=0;orthogonalLoop=1;jettySize=auto;html=1;exitX=0.496;exitY=0.926;exitDx=0;exitDy=0;exitPerimeter=0;" edge="1" parent="1" source="yoYte41sQshFuNEFcuPe-289" target="yoYte41sQshFuNEFcuPe-361">
          <mxGeometry relative="1" as="geometry">
            <Array as="points">
              <mxPoint x="1741.0043002544528" y="783.9266666666663" />
            </Array>
          </mxGeometry>
        </mxCell>
        <mxCell id="yoYte41sQshFuNEFcuPe-363" value="delete task" style="edgeLabel;html=1;align=center;verticalAlign=middle;resizable=0;points=[];" vertex="1" connectable="0" parent="yoYte41sQshFuNEFcuPe-362">
          <mxGeometry x="0.2962" relative="1" as="geometry">
            <mxPoint as="offset" />
          </mxGeometry>
        </mxCell>
        <mxCell id="yoYte41sQshFuNEFcuPe-459" style="edgeStyle=orthogonalEdgeStyle;rounded=0;orthogonalLoop=1;jettySize=auto;html=1;" edge="1" parent="1" source="yoYte41sQshFuNEFcuPe-289" target="yoYte41sQshFuNEFcuPe-458">
          <mxGeometry relative="1" as="geometry" />
        </mxCell>
        <mxCell id="yoYte41sQshFuNEFcuPe-461" value="view requests" style="edgeLabel;html=1;align=center;verticalAlign=middle;resizable=0;points=[];" vertex="1" connectable="0" parent="yoYte41sQshFuNEFcuPe-459">
          <mxGeometry x="0.0084" y="3" relative="1" as="geometry">
            <mxPoint x="1" as="offset" />
          </mxGeometry>
        </mxCell>
        <mxCell id="yoYte41sQshFuNEFcuPe-289" value="" style="html=1;whiteSpace=wrap;aspect=fixed;shape=isoRectangle;rotation=90;fillColor=#d5e8d4;strokeColor=#82b366;" vertex="1" parent="1">
          <mxGeometry x="1761.2975572519083" y="763.0733333333333" width="58.33" height="35" as="geometry" />
        </mxCell>
        <mxCell id="yoYte41sQshFuNEFcuPe-290" style="edgeStyle=orthogonalEdgeStyle;rounded=0;orthogonalLoop=1;jettySize=auto;html=1;entryX=0.101;entryY=0.469;entryDx=0;entryDy=0;entryPerimeter=0;" edge="1" parent="1" source="yoYte41sQshFuNEFcuPe-285" target="yoYte41sQshFuNEFcuPe-289">
          <mxGeometry relative="1" as="geometry" />
        </mxCell>
        <mxCell id="yoYte41sQshFuNEFcuPe-291" value="Text" style="edgeLabel;html=1;align=center;verticalAlign=middle;resizable=0;points=[];" vertex="1" connectable="0" parent="yoYte41sQshFuNEFcuPe-290">
          <mxGeometry x="-0.0781" relative="1" as="geometry">
            <mxPoint y="-1" as="offset" />
          </mxGeometry>
        </mxCell>
        <mxCell id="yoYte41sQshFuNEFcuPe-294" value="select action" style="edgeLabel;html=1;align=center;verticalAlign=middle;resizable=0;points=[];" vertex="1" connectable="0" parent="yoYte41sQshFuNEFcuPe-290">
          <mxGeometry x="-0.2143" y="1" relative="1" as="geometry">
            <mxPoint as="offset" />
          </mxGeometry>
        </mxCell>
        <mxCell id="yoYte41sQshFuNEFcuPe-287" style="edgeStyle=orthogonalEdgeStyle;rounded=0;orthogonalLoop=1;jettySize=auto;html=1;entryX=0.5;entryY=0;entryDx=0;entryDy=0;exitX=0.461;exitY=1.014;exitDx=0;exitDy=0;exitPerimeter=0;" edge="1" parent="1" target="yoYte41sQshFuNEFcuPe-285">
          <mxGeometry relative="1" as="geometry">
            <mxPoint x="1841.5029898218825" y="539.098463333333" as="sourcePoint" />
          </mxGeometry>
        </mxCell>
        <mxCell id="yoYte41sQshFuNEFcuPe-288" value="create/select class" style="edgeLabel;html=1;align=center;verticalAlign=middle;resizable=0;points=[];" vertex="1" connectable="0" parent="yoYte41sQshFuNEFcuPe-287">
          <mxGeometry x="0.309" y="1" relative="1" as="geometry">
            <mxPoint as="offset" />
          </mxGeometry>
        </mxCell>
        <mxCell id="yoYte41sQshFuNEFcuPe-367" style="edgeStyle=orthogonalEdgeStyle;rounded=0;orthogonalLoop=1;jettySize=auto;html=1;" edge="1" parent="1" source="yoYte41sQshFuNEFcuPe-293">
          <mxGeometry relative="1" as="geometry">
            <mxPoint x="1940.5902747431994" y="968.0716666666667" as="targetPoint" />
          </mxGeometry>
        </mxCell>
        <mxCell id="yoYte41sQshFuNEFcuPe-368" value="view students" style="edgeLabel;html=1;align=center;verticalAlign=middle;resizable=0;points=[];" vertex="1" connectable="0" parent="yoYte41sQshFuNEFcuPe-367">
          <mxGeometry x="-0.1361" y="-3" relative="1" as="geometry">
            <mxPoint as="offset" />
          </mxGeometry>
        </mxCell>
        <mxCell id="yoYte41sQshFuNEFcuPe-293" value="task" style="rounded=1;whiteSpace=wrap;html=1;fillColor=#d5e8d4;strokeColor=#82b366;" vertex="1" parent="1">
          <mxGeometry x="1873.8834351145038" y="836.6733333333332" width="133.43511450381678" height="73.6" as="geometry" />
        </mxCell>
        <mxCell id="yoYte41sQshFuNEFcuPe-354" value="analysis page" style="rounded=1;whiteSpace=wrap;html=1;fillColor=#ffe6cc;strokeColor=#d79b00;" vertex="1" parent="1">
          <mxGeometry x="1953.6252417302799" y="1616.8033333333333" width="133.43511450381678" height="73.6" as="geometry" />
        </mxCell>
        <mxCell id="yoYte41sQshFuNEFcuPe-359" style="edgeStyle=orthogonalEdgeStyle;rounded=0;orthogonalLoop=1;jettySize=auto;html=1;entryX=1;entryY=0.75;entryDx=0;entryDy=0;" edge="1" parent="1" source="yoYte41sQshFuNEFcuPe-293" target="yoYte41sQshFuNEFcuPe-293">
          <mxGeometry relative="1" as="geometry">
            <Array as="points">
              <mxPoint x="2030.1137150127224" y="861.2066666666665" />
              <mxPoint x="2030.1137150127224" y="891.873333333333" />
            </Array>
          </mxGeometry>
        </mxCell>
        <mxCell id="yoYte41sQshFuNEFcuPe-360" value="add sample" style="edgeLabel;html=1;align=center;verticalAlign=middle;resizable=0;points=[];" vertex="1" connectable="0" parent="yoYte41sQshFuNEFcuPe-359">
          <mxGeometry x="0.053" y="-3" relative="1" as="geometry">
            <mxPoint x="13" y="-4" as="offset" />
          </mxGeometry>
        </mxCell>
        <mxCell id="yoYte41sQshFuNEFcuPe-364" style="edgeStyle=orthogonalEdgeStyle;rounded=0;orthogonalLoop=1;jettySize=auto;html=1;entryX=0;entryY=0.5;entryDx=0;entryDy=0;" edge="1" parent="1" source="yoYte41sQshFuNEFcuPe-361" target="yoYte41sQshFuNEFcuPe-285">
          <mxGeometry relative="1" as="geometry">
            <Array as="points">
              <mxPoint x="1685.4063358778626" y="661.2599999999998" />
            </Array>
          </mxGeometry>
        </mxCell>
        <mxCell id="yoYte41sQshFuNEFcuPe-365" value="update tasks" style="edgeLabel;html=1;align=center;verticalAlign=middle;resizable=0;points=[];" vertex="1" connectable="0" parent="yoYte41sQshFuNEFcuPe-364">
          <mxGeometry x="-0.375" y="5" relative="1" as="geometry">
            <mxPoint as="offset" />
          </mxGeometry>
        </mxCell>
        <mxCell id="yoYte41sQshFuNEFcuPe-361" value="confirm delete task" style="rounded=1;whiteSpace=wrap;html=1;fillColor=#d5e8d4;strokeColor=#82b366;" vertex="1" parent="1">
          <mxGeometry x="1651.4915776081425" y="848.9399999999996" width="133.43511450381678" height="73.6" as="geometry" />
        </mxCell>
        <mxCell id="yoYte41sQshFuNEFcuPe-443" style="edgeStyle=orthogonalEdgeStyle;rounded=0;orthogonalLoop=1;jettySize=auto;html=1;" edge="1" parent="1" source="yoYte41sQshFuNEFcuPe-440">
          <mxGeometry relative="1" as="geometry">
            <mxPoint x="1729.3285496183205" y="1006.5433333333331" as="targetPoint" />
          </mxGeometry>
        </mxCell>
        <mxCell id="yoYte41sQshFuNEFcuPe-444" value="view student sessions" style="edgeLabel;html=1;align=center;verticalAlign=middle;resizable=0;points=[];" vertex="1" connectable="0" parent="yoYte41sQshFuNEFcuPe-443">
          <mxGeometry x="0.0645" relative="1" as="geometry">
            <mxPoint as="offset" />
          </mxGeometry>
        </mxCell>
        <mxCell id="yoYte41sQshFuNEFcuPe-440" value="students" style="rounded=1;whiteSpace=wrap;html=1;fillColor=#d5e8d4;strokeColor=#82b366;" vertex="1" parent="1">
          <mxGeometry x="1873.8834351145038" y="969.7433333333333" width="133.43511450381678" height="73.6" as="geometry" />
        </mxCell>
        <mxCell id="yoYte41sQshFuNEFcuPe-442" value="student sessions" style="rounded=1;whiteSpace=wrap;html=1;fillColor=#d5e8d4;strokeColor=#82b366;" vertex="1" parent="1">
          <mxGeometry x="1595.8934351145037" y="969.7433333333333" width="133.43511450381678" height="73.6" as="geometry" />
        </mxCell>
        <mxCell id="yoYte41sQshFuNEFcuPe-441" value="&amp;nbsp;teacher chat" style="rounded=1;whiteSpace=wrap;html=1;fillColor=#d5e8d4;strokeColor=#82b366;" vertex="1" parent="1">
          <mxGeometry x="1410.0034351145036" y="792.1333333333333" width="133.43511450381678" height="73.6" as="geometry" />
        </mxCell>
        <mxCell id="yoYte41sQshFuNEFcuPe-445" style="edgeStyle=orthogonalEdgeStyle;rounded=0;orthogonalLoop=1;jettySize=auto;html=1;entryX=0.5;entryY=1;entryDx=0;entryDy=0;" edge="1" parent="1" target="yoYte41sQshFuNEFcuPe-441">
          <mxGeometry relative="1" as="geometry">
            <mxPoint x="1595.8300000000002" y="999.7399999999998" as="sourcePoint" />
            <Array as="points">
              <mxPoint x="1596" y="1007" />
              <mxPoint x="1477" y="1007" />
            </Array>
          </mxGeometry>
        </mxCell>
        <mxCell id="yoYte41sQshFuNEFcuPe-446" value="send remarks to user/view questions" style="edgeLabel;html=1;align=center;verticalAlign=middle;resizable=0;points=[];" vertex="1" connectable="0" parent="yoYte41sQshFuNEFcuPe-445">
          <mxGeometry x="0.0264" y="-1" relative="1" as="geometry">
            <mxPoint x="-1" y="-46" as="offset" />
          </mxGeometry>
        </mxCell>
        <mxCell id="yoYte41sQshFuNEFcuPe-454" style="edgeStyle=orthogonalEdgeStyle;rounded=0;orthogonalLoop=1;jettySize=auto;html=1;entryX=0;entryY=0.25;entryDx=0;entryDy=0;exitX=1;exitY=0.5;exitDx=0;exitDy=0;" edge="1" parent="1" source="yoYte41sQshFuNEFcuPe-493" target="yoYte41sQshFuNEFcuPe-453">
          <mxGeometry relative="1" as="geometry">
            <mxPoint x="356.7306272519084" y="1612.968333333333" as="sourcePoint" />
            <Array as="points">
              <mxPoint x="348" y="1608" />
            </Array>
          </mxGeometry>
        </mxCell>
        <mxCell id="yoYte41sQshFuNEFcuPe-455" value="leave class" style="edgeLabel;html=1;align=center;verticalAlign=middle;resizable=0;points=[];" vertex="1" connectable="0" parent="yoYte41sQshFuNEFcuPe-454">
          <mxGeometry x="-0.1617" relative="1" as="geometry">
            <mxPoint x="1" as="offset" />
          </mxGeometry>
        </mxCell>
        <mxCell id="yoYte41sQshFuNEFcuPe-465" style="edgeStyle=orthogonalEdgeStyle;rounded=0;orthogonalLoop=1;jettySize=auto;html=1;entryX=1;entryY=0.75;entryDx=0;entryDy=0;exitX=1;exitY=0.5;exitDx=0;exitDy=0;" edge="1" parent="1" source="yoYte41sQshFuNEFcuPe-492" target="yoYte41sQshFuNEFcuPe-507">
          <mxGeometry relative="1" as="geometry">
            <mxPoint x="766" y="590.0033333333331" as="sourcePoint" />
            <Array as="points">
              <mxPoint x="1210" y="570" />
              <mxPoint x="1210" y="1033" />
            </Array>
          </mxGeometry>
        </mxCell>
        <mxCell id="yoYte41sQshFuNEFcuPe-466" value="request to join" style="edgeLabel;html=1;align=center;verticalAlign=middle;resizable=0;points=[];" vertex="1" connectable="0" parent="yoYte41sQshFuNEFcuPe-465">
          <mxGeometry x="-0.4277" y="-2" relative="1" as="geometry">
            <mxPoint as="offset" />
          </mxGeometry>
        </mxCell>
        <mxCell id="yoYte41sQshFuNEFcuPe-468" style="edgeStyle=orthogonalEdgeStyle;rounded=0;orthogonalLoop=1;jettySize=auto;html=1;entryX=0;entryY=0.5;entryDx=0;entryDy=0;exitX=1;exitY=0.5;exitDx=0;exitDy=0;" edge="1" parent="1" source="yoYte41sQshFuNEFcuPe-493" target="yoYte41sQshFuNEFcuPe-467">
          <mxGeometry relative="1" as="geometry">
            <mxPoint x="381.2875572519086" y="1626.8284615384614" as="sourcePoint" />
          </mxGeometry>
        </mxCell>
        <mxCell id="yoYte41sQshFuNEFcuPe-469" value="select class" style="edgeLabel;html=1;align=center;verticalAlign=middle;resizable=0;points=[];" vertex="1" connectable="0" parent="yoYte41sQshFuNEFcuPe-468">
          <mxGeometry x="0.093" y="5" relative="1" as="geometry">
            <mxPoint y="-1" as="offset" />
          </mxGeometry>
        </mxCell>
        <mxCell id="yoYte41sQshFuNEFcuPe-451" style="edgeStyle=orthogonalEdgeStyle;rounded=0;orthogonalLoop=1;jettySize=auto;html=1;entryX=0.069;entryY=0.448;entryDx=0;entryDy=0;entryPerimeter=0;" edge="1" parent="1" source="yoYte41sQshFuNEFcuPe-220">
          <mxGeometry relative="1" as="geometry">
            <mxPoint x="740.9123272519082" y="570.6833333333332" as="targetPoint" />
          </mxGeometry>
        </mxCell>
        <mxCell id="yoYte41sQshFuNEFcuPe-452" value="select action" style="edgeLabel;html=1;align=center;verticalAlign=middle;resizable=0;points=[];" vertex="1" connectable="0" parent="yoYte41sQshFuNEFcuPe-451">
          <mxGeometry x="-0.5307" y="1" relative="1" as="geometry">
            <mxPoint x="21" as="offset" />
          </mxGeometry>
        </mxCell>
        <mxCell id="yoYte41sQshFuNEFcuPe-456" style="edgeStyle=orthogonalEdgeStyle;rounded=0;orthogonalLoop=1;jettySize=auto;html=1;entryX=0.5;entryY=0;entryDx=0;entryDy=0;exitX=0.5;exitY=0;exitDx=0;exitDy=0;" edge="1" parent="1" source="yoYte41sQshFuNEFcuPe-492" target="yoYte41sQshFuNEFcuPe-220">
          <mxGeometry relative="1" as="geometry">
            <Array as="points">
              <mxPoint x="806" y="520" />
              <mxPoint x="584" y="520" />
            </Array>
          </mxGeometry>
        </mxCell>
        <mxCell id="yoYte41sQshFuNEFcuPe-457" value="update classes" style="edgeLabel;html=1;align=center;verticalAlign=middle;resizable=0;points=[];" vertex="1" connectable="0" parent="yoYte41sQshFuNEFcuPe-456">
          <mxGeometry x="0.1501" y="1" relative="1" as="geometry">
            <mxPoint as="offset" />
          </mxGeometry>
        </mxCell>
        <mxCell id="yoYte41sQshFuNEFcuPe-453" value="confirm exit class" style="rounded=1;whiteSpace=wrap;html=1;fillColor=#f8cecc;strokeColor=#b85450;" vertex="1" parent="1">
          <mxGeometry x="873.0566412213739" y="1589.9966666666667" width="133.43511450381678" height="73.6" as="geometry" />
        </mxCell>
        <mxCell id="yoYte41sQshFuNEFcuPe-521" style="edgeStyle=orthogonalEdgeStyle;rounded=0;orthogonalLoop=1;jettySize=auto;html=1;entryX=0;entryY=0.25;entryDx=0;entryDy=0;" edge="1" parent="1" source="yoYte41sQshFuNEFcuPe-458" target="yoYte41sQshFuNEFcuPe-520">
          <mxGeometry relative="1" as="geometry">
            <Array as="points">
              <mxPoint x="2181.49" y="761.8699999999999" />
              <mxPoint x="2181.49" y="761.8699999999999" />
            </Array>
          </mxGeometry>
        </mxCell>
        <mxCell id="yoYte41sQshFuNEFcuPe-522" value="update classes" style="edgeLabel;html=1;align=center;verticalAlign=middle;resizable=0;points=[];" vertex="1" connectable="0" parent="yoYte41sQshFuNEFcuPe-521">
          <mxGeometry x="-0.0202" y="-2" relative="1" as="geometry">
            <mxPoint x="-1" as="offset" />
          </mxGeometry>
        </mxCell>
        <mxCell id="yoYte41sQshFuNEFcuPe-458" value="join requests" style="rounded=1;whiteSpace=wrap;html=1;fillColor=#d5e8d4;strokeColor=#82b366;" vertex="1" parent="1">
          <mxGeometry x="1961.4934351145039" y="743.7733333333331" width="133.43511450381678" height="73.6" as="geometry" />
        </mxCell>
        <mxCell id="yoYte41sQshFuNEFcuPe-471" style="edgeStyle=orthogonalEdgeStyle;rounded=0;orthogonalLoop=1;jettySize=auto;html=1;entryX=0;entryY=0.5;entryDx=0;entryDy=0;" edge="1" parent="1" source="yoYte41sQshFuNEFcuPe-467" target="yoYte41sQshFuNEFcuPe-470">
          <mxGeometry relative="1" as="geometry" />
        </mxCell>
        <mxCell id="yoYte41sQshFuNEFcuPe-496" value="select task" style="edgeLabel;html=1;align=center;verticalAlign=middle;resizable=0;points=[];" vertex="1" connectable="0" parent="yoYte41sQshFuNEFcuPe-471">
          <mxGeometry x="-0.2887" relative="1" as="geometry">
            <mxPoint as="offset" />
          </mxGeometry>
        </mxCell>
        <mxCell id="yoYte41sQshFuNEFcuPe-497" style="edgeStyle=orthogonalEdgeStyle;rounded=0;orthogonalLoop=1;jettySize=auto;html=1;" edge="1" parent="1" source="yoYte41sQshFuNEFcuPe-467" target="yoYte41sQshFuNEFcuPe-495">
          <mxGeometry relative="1" as="geometry" />
        </mxCell>
        <mxCell id="yoYte41sQshFuNEFcuPe-499" value="search class Id" style="edgeLabel;html=1;align=center;verticalAlign=middle;resizable=0;points=[];" vertex="1" connectable="0" parent="yoYte41sQshFuNEFcuPe-497">
          <mxGeometry x="-0.1634" y="-4" relative="1" as="geometry">
            <mxPoint as="offset" />
          </mxGeometry>
        </mxCell>
        <mxCell id="yoYte41sQshFuNEFcuPe-467" value="assigned class page" style="rounded=1;whiteSpace=wrap;html=1;fillColor=#f8cecc;strokeColor=#b85450;" vertex="1" parent="1">
          <mxGeometry x="546.0687277353688" y="1662.4233333333332" width="133.43511450381678" height="73.6" as="geometry" />
        </mxCell>
        <mxCell id="yoYte41sQshFuNEFcuPe-473" style="edgeStyle=orthogonalEdgeStyle;rounded=0;orthogonalLoop=1;jettySize=auto;html=1;" edge="1" parent="1" source="yoYte41sQshFuNEFcuPe-470" target="yoYte41sQshFuNEFcuPe-472">
          <mxGeometry relative="1" as="geometry" />
        </mxCell>
        <mxCell id="yoYte41sQshFuNEFcuPe-474" value="select action" style="edgeLabel;html=1;align=center;verticalAlign=middle;resizable=0;points=[];" vertex="1" connectable="0" parent="yoYte41sQshFuNEFcuPe-473">
          <mxGeometry x="-0.3081" y="6" relative="1" as="geometry">
            <mxPoint y="1" as="offset" />
          </mxGeometry>
        </mxCell>
        <mxCell id="yoYte41sQshFuNEFcuPe-470" value="assigned task page" style="rounded=1;whiteSpace=wrap;html=1;fillColor=#f8cecc;strokeColor=#b85450;" vertex="1" parent="1">
          <mxGeometry x="946.0687277353688" y="1694.2933333333333" width="133.43511450381678" height="73.6" as="geometry" />
        </mxCell>
        <mxCell id="yoYte41sQshFuNEFcuPe-477" style="edgeStyle=orthogonalEdgeStyle;rounded=0;orthogonalLoop=1;jettySize=auto;html=1;entryX=0.5;entryY=0;entryDx=0;entryDy=0;" edge="1" parent="1" source="yoYte41sQshFuNEFcuPe-472" target="yoYte41sQshFuNEFcuPe-476">
          <mxGeometry relative="1" as="geometry" />
        </mxCell>
        <mxCell id="yoYte41sQshFuNEFcuPe-478" value="perform task" style="edgeLabel;html=1;align=center;verticalAlign=middle;resizable=0;points=[];" vertex="1" connectable="0" parent="yoYte41sQshFuNEFcuPe-477">
          <mxGeometry x="-0.3068" relative="1" as="geometry">
            <mxPoint as="offset" />
          </mxGeometry>
        </mxCell>
        <mxCell id="yoYte41sQshFuNEFcuPe-481" style="edgeStyle=orthogonalEdgeStyle;rounded=0;orthogonalLoop=1;jettySize=auto;html=1;entryX=0.5;entryY=0;entryDx=0;entryDy=0;" edge="1" parent="1" source="yoYte41sQshFuNEFcuPe-472" target="yoYte41sQshFuNEFcuPe-480">
          <mxGeometry relative="1" as="geometry" />
        </mxCell>
        <mxCell id="yoYte41sQshFuNEFcuPe-482" value="send questions / view remarks" style="edgeLabel;html=1;align=center;verticalAlign=middle;resizable=0;points=[];" vertex="1" connectable="0" parent="yoYte41sQshFuNEFcuPe-481">
          <mxGeometry x="-0.0088" y="-2" relative="1" as="geometry">
            <mxPoint as="offset" />
          </mxGeometry>
        </mxCell>
        <mxCell id="yoYte41sQshFuNEFcuPe-472" value="" style="html=1;whiteSpace=wrap;aspect=fixed;shape=isoRectangle;rotation=90;fillColor=#f8cecc;strokeColor=#b85450;" vertex="1" parent="1">
          <mxGeometry x="983.6175572519082" y="1844.293333333333" width="58.33" height="35" as="geometry" />
        </mxCell>
        <mxCell id="yoYte41sQshFuNEFcuPe-483" style="edgeStyle=orthogonalEdgeStyle;rounded=0;orthogonalLoop=1;jettySize=auto;html=1;" edge="1" parent="1" source="yoYte41sQshFuNEFcuPe-476" target="yoYte41sQshFuNEFcuPe-479">
          <mxGeometry relative="1" as="geometry">
            <Array as="points">
              <mxPoint x="1156.07" y="2024.29" />
              <mxPoint x="1156.07" y="2024.29" />
            </Array>
          </mxGeometry>
        </mxCell>
        <mxCell id="yoYte41sQshFuNEFcuPe-484" value="get/create analysis" style="edgeLabel;html=1;align=center;verticalAlign=middle;resizable=0;points=[];" vertex="1" connectable="0" parent="yoYte41sQshFuNEFcuPe-483">
          <mxGeometry x="-0.0325" y="-1" relative="1" as="geometry">
            <mxPoint y="2" as="offset" />
          </mxGeometry>
        </mxCell>
        <mxCell id="yoYte41sQshFuNEFcuPe-489" style="edgeStyle=orthogonalEdgeStyle;rounded=0;orthogonalLoop=1;jettySize=auto;html=1;entryX=1;entryY=0.5;entryDx=0;entryDy=0;" edge="1" parent="1" source="yoYte41sQshFuNEFcuPe-476" target="yoYte41sQshFuNEFcuPe-488">
          <mxGeometry relative="1" as="geometry">
            <Array as="points">
              <mxPoint x="986.0699999999999" y="1944.29" />
              <mxPoint x="986.0699999999999" y="2091.29" />
            </Array>
          </mxGeometry>
        </mxCell>
        <mxCell id="yoYte41sQshFuNEFcuPe-490" value="show analysis" style="edgeLabel;html=1;align=center;verticalAlign=middle;resizable=0;points=[];" vertex="1" connectable="0" parent="yoYte41sQshFuNEFcuPe-489">
          <mxGeometry x="-0.0518" y="-1" relative="1" as="geometry">
            <mxPoint as="offset" />
          </mxGeometry>
        </mxCell>
        <mxCell id="yoYte41sQshFuNEFcuPe-476" value="assigned session page" style="rounded=1;whiteSpace=wrap;html=1;fillColor=#f8cecc;strokeColor=#b85450;" vertex="1" parent="1">
          <mxGeometry x="1041.9487277353687" y="1907.7533333333333" width="133.43511450381678" height="73.6" as="geometry" />
        </mxCell>
        <mxCell id="yoYte41sQshFuNEFcuPe-485" style="edgeStyle=orthogonalEdgeStyle;rounded=0;orthogonalLoop=1;jettySize=auto;html=1;" edge="1" parent="1" source="yoYte41sQshFuNEFcuPe-479" target="yoYte41sQshFuNEFcuPe-476">
          <mxGeometry relative="1" as="geometry">
            <Array as="points">
              <mxPoint x="1056.07" y="2014.29" />
              <mxPoint x="1056.07" y="2014.29" />
            </Array>
          </mxGeometry>
        </mxCell>
        <mxCell id="yoYte41sQshFuNEFcuPe-487" value="return analysis" style="edgeLabel;html=1;align=center;verticalAlign=middle;resizable=0;points=[];" vertex="1" connectable="0" parent="yoYte41sQshFuNEFcuPe-485">
          <mxGeometry x="0.1233" y="-2" relative="1" as="geometry">
            <mxPoint y="5" as="offset" />
          </mxGeometry>
        </mxCell>
        <mxCell id="yoYte41sQshFuNEFcuPe-479" value="assigned analysis page" style="rounded=1;whiteSpace=wrap;html=1;fillColor=#f8cecc;strokeColor=#b85450;" vertex="1" parent="1">
          <mxGeometry x="1041.9487277353687" y="2054.9533333333334" width="133.43511450381678" height="73.6" as="geometry" />
        </mxCell>
        <mxCell id="yoYte41sQshFuNEFcuPe-480" value="&amp;nbsp;student chat" style="rounded=1;whiteSpace=wrap;html=1;fillColor=#f8cecc;strokeColor=#b85450;" vertex="1" parent="1">
          <mxGeometry x="812.6299999999999" y="1904.29" width="139.71" height="77.06" as="geometry" />
        </mxCell>
        <mxCell id="yoYte41sQshFuNEFcuPe-488" value="assigned analysis page" style="rounded=1;whiteSpace=wrap;html=1;fillColor=#f8cecc;strokeColor=#b85450;" vertex="1" parent="1">
          <mxGeometry x="826.0652417302797" y="2054.293333333333" width="133.43511450381678" height="73.6" as="geometry" />
        </mxCell>
        <mxCell id="yoYte41sQshFuNEFcuPe-491" value="&lt;b&gt;&lt;u&gt;&lt;font style=&quot;font-size: 36px;&quot;&gt;Assigned Classes:&lt;/font&gt;:&lt;/u&gt;&lt;/b&gt;" style="text;html=1;align=center;verticalAlign=middle;resizable=0;points=[];autosize=1;strokeColor=none;fillColor=none;" vertex="1" parent="1">
          <mxGeometry x="156.18" y="1490" width="350" height="60" as="geometry" />
        </mxCell>
        <mxCell id="yoYte41sQshFuNEFcuPe-492" value="assigned classes_Ref" style="rounded=1;whiteSpace=wrap;html=1;fillColor=#f8cecc;strokeColor=#b85450;" vertex="1" parent="1">
          <mxGeometry x="739.6224427480915" y="533.2033333333334" width="133.43511450381678" height="73.6" as="geometry" />
        </mxCell>
        <mxCell id="yoYte41sQshFuNEFcuPe-514" style="edgeStyle=orthogonalEdgeStyle;rounded=0;orthogonalLoop=1;jettySize=auto;html=1;" edge="1" parent="1" source="yoYte41sQshFuNEFcuPe-493">
          <mxGeometry relative="1" as="geometry">
            <mxPoint x="120" y="1610" as="targetPoint" />
            <Array as="points">
              <mxPoint x="130" y="1610" />
            </Array>
          </mxGeometry>
        </mxCell>
        <mxCell id="yoYte41sQshFuNEFcuPe-515" value="update classes" style="edgeLabel;html=1;align=center;verticalAlign=middle;resizable=0;points=[];" vertex="1" connectable="0" parent="yoYte41sQshFuNEFcuPe-514">
          <mxGeometry x="0.2939" y="6" relative="1" as="geometry">
            <mxPoint x="1" as="offset" />
          </mxGeometry>
        </mxCell>
        <mxCell id="yoYte41sQshFuNEFcuPe-516" style="edgeStyle=orthogonalEdgeStyle;rounded=0;orthogonalLoop=1;jettySize=auto;html=1;endArrow=none;endFill=0;startArrow=classic;startFill=1;" edge="1" parent="1" source="yoYte41sQshFuNEFcuPe-493">
          <mxGeometry relative="1" as="geometry">
            <mxPoint x="120" y="1640" as="targetPoint" />
            <Array as="points">
              <mxPoint x="120" y="1640" />
            </Array>
          </mxGeometry>
        </mxCell>
        <mxCell id="yoYte41sQshFuNEFcuPe-517" value="select action" style="edgeLabel;html=1;align=center;verticalAlign=middle;resizable=0;points=[];" vertex="1" connectable="0" parent="yoYte41sQshFuNEFcuPe-516">
          <mxGeometry x="0.1323" y="2" relative="1" as="geometry">
            <mxPoint as="offset" />
          </mxGeometry>
        </mxCell>
        <mxCell id="yoYte41sQshFuNEFcuPe-493" value="" style="ellipse;whiteSpace=wrap;html=1;aspect=fixed;fillColor=#f8cecc;strokeColor=#b85450;" vertex="1" parent="1">
          <mxGeometry x="307.60969465648856" y="1606.8" width="40" height="40" as="geometry" />
        </mxCell>
        <mxCell id="yoYte41sQshFuNEFcuPe-500" style="edgeStyle=orthogonalEdgeStyle;rounded=0;orthogonalLoop=1;jettySize=auto;html=1;entryX=1;entryY=0.75;entryDx=0;entryDy=0;" edge="1" parent="1" source="yoYte41sQshFuNEFcuPe-495" target="yoYte41sQshFuNEFcuPe-467">
          <mxGeometry relative="1" as="geometry">
            <Array as="points">
              <mxPoint x="700" y="1857" />
              <mxPoint x="700" y="1718" />
            </Array>
          </mxGeometry>
        </mxCell>
        <mxCell id="yoYte41sQshFuNEFcuPe-501" value="no class has Id" style="edgeLabel;html=1;align=center;verticalAlign=middle;resizable=0;points=[];" vertex="1" connectable="0" parent="yoYte41sQshFuNEFcuPe-500">
          <mxGeometry x="-0.1118" y="-1" relative="1" as="geometry">
            <mxPoint as="offset" />
          </mxGeometry>
        </mxCell>
        <mxCell id="yoYte41sQshFuNEFcuPe-502" style="edgeStyle=orthogonalEdgeStyle;rounded=0;orthogonalLoop=1;jettySize=auto;html=1;" edge="1" parent="1" source="yoYte41sQshFuNEFcuPe-495" target="yoYte41sQshFuNEFcuPe-518">
          <mxGeometry relative="1" as="geometry">
            <mxPoint x="190" y="1857" as="targetPoint" />
            <Array as="points">
              <mxPoint x="390" y="1830" />
              <mxPoint x="390" y="1830" />
            </Array>
          </mxGeometry>
        </mxCell>
        <mxCell id="yoYte41sQshFuNEFcuPe-503" value="request to join" style="edgeLabel;html=1;align=center;verticalAlign=middle;resizable=0;points=[];" vertex="1" connectable="0" parent="yoYte41sQshFuNEFcuPe-502">
          <mxGeometry x="-0.2372" y="-4" relative="1" as="geometry">
            <mxPoint as="offset" />
          </mxGeometry>
        </mxCell>
        <mxCell id="yoYte41sQshFuNEFcuPe-495" value="search class" style="rounded=1;whiteSpace=wrap;html=1;fillColor=#f8cecc;strokeColor=#b85450;" vertex="1" parent="1">
          <mxGeometry x="546.0687277353688" y="1820.003333333333" width="133.43511450381678" height="73.6" as="geometry" />
        </mxCell>
        <mxCell id="yoYte41sQshFuNEFcuPe-504" value="&lt;b&gt;&lt;u&gt;&lt;font style=&quot;font-size: 36px;&quot;&gt;Created Classes:&lt;/font&gt;:&lt;/u&gt;&lt;/b&gt;" style="text;html=1;align=center;verticalAlign=middle;resizable=0;points=[];autosize=1;strokeColor=none;fillColor=none;" vertex="1" parent="1">
          <mxGeometry x="1340" y="450.00000000000006" width="320" height="60" as="geometry" />
        </mxCell>
        <mxCell id="yoYte41sQshFuNEFcuPe-507" value="created classes_Ref" style="rounded=1;whiteSpace=wrap;html=1;fillColor=#d5e8d4;strokeColor=#82b366;" vertex="1" parent="1">
          <mxGeometry x="789.9962849872772" y="977.6033333333332" width="133.43511450381678" height="73.6" as="geometry" />
        </mxCell>
        <mxCell id="yoYte41sQshFuNEFcuPe-525" style="edgeStyle=orthogonalEdgeStyle;rounded=0;orthogonalLoop=1;jettySize=auto;html=1;entryX=0.5;entryY=1;entryDx=0;entryDy=0;" edge="1" parent="1" source="yoYte41sQshFuNEFcuPe-518" target="yoYte41sQshFuNEFcuPe-493">
          <mxGeometry relative="1" as="geometry">
            <Array as="points">
              <mxPoint x="153" y="1740" />
              <mxPoint x="328" y="1740" />
            </Array>
          </mxGeometry>
        </mxCell>
        <mxCell id="yoYte41sQshFuNEFcuPe-526" value="updare classes" style="edgeLabel;html=1;align=center;verticalAlign=middle;resizable=0;points=[];" vertex="1" connectable="0" parent="yoYte41sQshFuNEFcuPe-525">
          <mxGeometry x="-0.3195" y="1" relative="1" as="geometry">
            <mxPoint as="offset" />
          </mxGeometry>
        </mxCell>
        <mxCell id="yoYte41sQshFuNEFcuPe-518" value="created classes_Ref" style="rounded=1;whiteSpace=wrap;html=1;fillColor=#d5e8d4;strokeColor=#82b366;" vertex="1" parent="1">
          <mxGeometry x="86.56628498727724" y="1820.003333333333" width="133.43511450381678" height="73.6" as="geometry" />
        </mxCell>
        <mxCell id="yoYte41sQshFuNEFcuPe-532" style="edgeStyle=orthogonalEdgeStyle;rounded=0;orthogonalLoop=1;jettySize=auto;html=1;" edge="1" parent="1" source="yoYte41sQshFuNEFcuPe-519">
          <mxGeometry relative="1" as="geometry">
            <mxPoint x="1680" y="530" as="targetPoint" />
          </mxGeometry>
        </mxCell>
        <mxCell id="yoYte41sQshFuNEFcuPe-536" value="update classes" style="edgeLabel;html=1;align=center;verticalAlign=middle;resizable=0;points=[];" vertex="1" connectable="0" parent="yoYte41sQshFuNEFcuPe-532">
          <mxGeometry x="0.0545" y="2" relative="1" as="geometry">
            <mxPoint as="offset" />
          </mxGeometry>
        </mxCell>
        <mxCell id="yoYte41sQshFuNEFcuPe-534" style="edgeStyle=orthogonalEdgeStyle;rounded=0;orthogonalLoop=1;jettySize=auto;html=1;endArrow=none;endFill=0;startArrow=classic;startFill=1;" edge="1" parent="1" source="yoYte41sQshFuNEFcuPe-519">
          <mxGeometry relative="1" as="geometry">
            <mxPoint x="1861.4896946564886" y="440" as="targetPoint" />
          </mxGeometry>
        </mxCell>
        <mxCell id="yoYte41sQshFuNEFcuPe-535" value="select action" style="edgeLabel;html=1;align=center;verticalAlign=middle;resizable=0;points=[];" vertex="1" connectable="0" parent="yoYte41sQshFuNEFcuPe-534">
          <mxGeometry x="-0.0983" relative="1" as="geometry">
            <mxPoint y="1" as="offset" />
          </mxGeometry>
        </mxCell>
        <mxCell id="yoYte41sQshFuNEFcuPe-519" value="" style="ellipse;whiteSpace=wrap;html=1;aspect=fixed;fillColor=#d5e8d4;strokeColor=#82b366;" vertex="1" parent="1">
          <mxGeometry x="1841.4896946564886" y="510.00000000000006" width="40" height="40" as="geometry" />
        </mxCell>
        <mxCell id="yoYte41sQshFuNEFcuPe-527" style="edgeStyle=orthogonalEdgeStyle;rounded=0;orthogonalLoop=1;jettySize=auto;html=1;" edge="1" parent="1" source="yoYte41sQshFuNEFcuPe-520" target="yoYte41sQshFuNEFcuPe-458">
          <mxGeometry relative="1" as="geometry">
            <Array as="points">
              <mxPoint x="2181.49" y="803.8699999999999" />
              <mxPoint x="2181.49" y="803.8699999999999" />
            </Array>
          </mxGeometry>
        </mxCell>
        <mxCell id="yoYte41sQshFuNEFcuPe-528" value="request to join" style="edgeLabel;html=1;align=center;verticalAlign=middle;resizable=0;points=[];" vertex="1" connectable="0" parent="yoYte41sQshFuNEFcuPe-527">
          <mxGeometry x="-0.1809" y="2" relative="1" as="geometry">
            <mxPoint as="offset" />
          </mxGeometry>
        </mxCell>
        <mxCell id="yoYte41sQshFuNEFcuPe-520" value="assigned classes_Ref" style="rounded=1;whiteSpace=wrap;html=1;fillColor=#f8cecc;strokeColor=#b85450;" vertex="1" parent="1">
          <mxGeometry x="2271.492442748092" y="743.7733333333333" width="133.43511450381678" height="73.6" as="geometry" />
        </mxCell>
        <mxCell id="yoYte41sQshFuNEFcuPe-529" value="&lt;span style=&quot;font-size: 36px;&quot;&gt;&lt;b&gt;&lt;u&gt;My_Projects:&lt;/u&gt;&lt;/b&gt;&lt;/span&gt;" style="text;html=1;align=center;verticalAlign=middle;resizable=0;points=[];autosize=1;strokeColor=none;fillColor=none;" vertex="1" parent="1">
          <mxGeometry x="1511.3000000000002" y="1390" width="250" height="60" as="geometry" />
        </mxCell>
        <mxCell id="yoYte41sQshFuNEFcuPe-544" style="edgeStyle=orthogonalEdgeStyle;rounded=0;orthogonalLoop=1;jettySize=auto;html=1;endArrow=none;endFill=0;startArrow=classic;startFill=1;" edge="1" parent="1" source="yoYte41sQshFuNEFcuPe-538">
          <mxGeometry relative="1" as="geometry">
            <mxPoint x="1723.4296946564887" y="1480" as="targetPoint" />
          </mxGeometry>
        </mxCell>
        <mxCell id="yoYte41sQshFuNEFcuPe-545" value="select action" style="edgeLabel;html=1;align=center;verticalAlign=middle;resizable=0;points=[];" vertex="1" connectable="0" parent="yoYte41sQshFuNEFcuPe-544">
          <mxGeometry x="0.0901" y="-4" relative="1" as="geometry">
            <mxPoint y="-1" as="offset" />
          </mxGeometry>
        </mxCell>
        <mxCell id="yoYte41sQshFuNEFcuPe-546" style="edgeStyle=orthogonalEdgeStyle;rounded=0;orthogonalLoop=1;jettySize=auto;html=1;" edge="1" parent="1" source="yoYte41sQshFuNEFcuPe-538">
          <mxGeometry relative="1" as="geometry">
            <mxPoint x="1530" y="1590" as="targetPoint" />
            <Array as="points">
              <mxPoint x="1617" y="1590" />
              <mxPoint x="1530" y="1591" />
            </Array>
          </mxGeometry>
        </mxCell>
        <mxCell id="yoYte41sQshFuNEFcuPe-547" value="update projects" style="edgeLabel;html=1;align=center;verticalAlign=middle;resizable=0;points=[];" vertex="1" connectable="0" parent="yoYte41sQshFuNEFcuPe-546">
          <mxGeometry x="0.0882" y="3" relative="1" as="geometry">
            <mxPoint as="offset" />
          </mxGeometry>
        </mxCell>
        <mxCell id="yoYte41sQshFuNEFcuPe-538" value="" style="ellipse;whiteSpace=wrap;html=1;aspect=fixed;fillColor=#fff2cc;strokeColor=#d6b656;" vertex="1" parent="1">
          <mxGeometry x="1703.4296946564887" y="1576.8" width="40" height="40" as="geometry" />
        </mxCell>
        <mxCell id="yoYte41sQshFuNEFcuPe-542" style="edgeStyle=orthogonalEdgeStyle;rounded=0;orthogonalLoop=1;jettySize=auto;html=1;entryX=0;entryY=0.5;entryDx=0;entryDy=0;exitX=0;exitY=0.5;exitDx=0;exitDy=0;" edge="1" parent="1" source="yoYte41sQshFuNEFcuPe-539" target="yoYte41sQshFuNEFcuPe-221">
          <mxGeometry relative="1" as="geometry" />
        </mxCell>
        <mxCell id="yoYte41sQshFuNEFcuPe-543" value="update projects" style="edgeLabel;html=1;align=center;verticalAlign=middle;resizable=0;points=[];" vertex="1" connectable="0" parent="yoYte41sQshFuNEFcuPe-542">
          <mxGeometry x="-0.0494" relative="1" as="geometry">
            <mxPoint y="1" as="offset" />
          </mxGeometry>
        </mxCell>
        <mxCell id="yoYte41sQshFuNEFcuPe-539" value="my projects_Ref" style="rounded=1;whiteSpace=wrap;html=1;fillColor=#ffe6cc;strokeColor=#d79b00;" vertex="1" parent="1">
          <mxGeometry x="239.23664122137404" y="865.7366666666667" width="133.43511450381678" height="73.6" as="geometry" />
        </mxCell>
      </root>
    </mxGraphModel>
  </diagram>
</mxfile>
